<svg width="33" height="30" viewBox="0 0 33 30" fill="none" xmlns="http://www.w3.org/2000/svg">
<path d="M12.5 21.6406C12.5 20.7656 12.7969 20.0312 13.3906 19.4375C14.0156 18.8125 14.7656 18.5 15.6406 18.5H22.8125L21.5938 15.0312C21.0938 13.75 20.5938 12.5469 20.0938 11.4219C19.625 10.2656 19.0781 9.21875 18.4531 8.28125C17.8906 7.34375 17.25 6.84375 16.5312 6.78125C15.7812 6.84375 15.1094 7.34375 14.5156 8.28125C13.9219 9.21875 13.375 10.2656 12.875 11.4219C12.4062 12.5469 11.9219 13.75 11.4219 15.0312L6.96875 27.2188C6.65625 27.875 6.25 28.4219 5.75 28.8594C5.28125 29.2656 4.5625 29.4688 3.59375 29.4688C2.6875 29.4688 1.9375 29.1562 1.34375 28.5312C0.78125 27.9062 0.53125 27.1562 0.59375 26.2812C0.625 25.875 0.71875 25.5 0.875 25.1562L6.03125 11.8438C7.46875 8.34375 8.90625 5.51562 10.3438 3.35938C11.75 1.23437 13.8125 0.15625 16.5312 0.125C19.2188 0.15625 21.2656 1.23437 22.6719 3.35938C24.1094 5.45312 25.5469 8.28125 26.9844 11.8438L32.1406 25.1562C32.2969 25.5 32.3906 25.875 32.4219 26.2812C32.4844 27.1562 32.2188 27.9062 31.625 28.5312C31.0625 29.1562 30.3281 29.4688 29.4219 29.4688C28.3906 29.4688 27.625 29.2656 27.125 28.8594C26.6562 28.4219 26.2656 27.875 25.9531 27.2188L25.0625 24.7812H15.6406C14.7656 24.7812 14.0312 24.4688 13.4375 23.8438C12.8125 23.25 12.5 22.5156 12.5 21.6406Z" fill="#FF6845"/>
</svg>
