<svg width="102" height="34" viewBox="0 0 102 34" fill="none" xmlns="http://www.w3.org/2000/svg">
<path d="M12.4 5.2C11.056 5.2 10 4.144 10 2.8C10 1.456 11.056 0.399998 12.4 0.399998C13.744 0.399998 14.8 1.456 14.8 2.8C14.8 4.144 13.744 5.2 12.4 5.2ZM7.6 12.4C6.256 12.4 5.2 11.344 5.2 10C5.2 8.656 6.256 7.6 7.6 7.6C8.944 7.6 10 8.656 10 10C10 11.344 8.944 12.4 7.6 12.4ZM17.2 12.4C15.856 12.4 14.8 11.344 14.8 10C14.8 8.656 15.856 7.6 17.2 7.6C18.544 7.6 19.6 8.656 19.6 10C19.6 11.344 18.544 12.4 17.2 12.4ZM2.8 19.6C1.456 19.6 0.4 18.544 0.4 17.2C0.4 15.856 1.456 14.8 2.8 14.8C4.144 14.8 5.2 15.856 5.2 17.2C5.2 18.544 4.144 19.6 2.8 19.6ZM22 19.6C20.656 19.6 19.6 18.544 19.6 17.2C19.6 15.856 20.656 14.8 22 14.8C23.344 14.8 24.4 15.856 24.4 17.2C24.4 18.544 23.344 19.6 22 19.6ZM2.8 26.8C1.456 26.8 0.4 25.744 0.4 24.4C0.4 23.056 1.456 22 2.8 22C4.144 22 5.2 23.056 5.2 24.4C5.2 25.744 4.144 26.8 2.8 26.8ZM7.6 26.8C6.256 26.8 5.2 25.744 5.2 24.4C5.2 23.056 6.256 22 7.6 22C8.944 22 10 23.056 10 24.4C10 25.744 8.944 26.8 7.6 26.8ZM12.4 26.8C11.056 26.8 10 25.744 10 24.4C10 23.056 11.056 22 12.4 22C13.744 22 14.8 23.056 14.8 24.4C14.8 25.744 13.744 26.8 12.4 26.8ZM17.2 26.8C15.856 26.8 14.8 25.744 14.8 24.4C14.8 23.056 15.856 22 17.2 22C18.544 22 19.6 23.056 19.6 24.4C19.6 25.744 18.544 26.8 17.2 26.8ZM22 26.8C20.656 26.8 19.6 25.744 19.6 24.4C19.6 23.056 20.656 22 22 22C23.344 22 24.4 23.056 24.4 24.4C24.4 25.744 23.344 26.8 22 26.8ZM2.8 34C1.456 34 0.4 32.944 0.4 31.6C0.4 30.256 1.456 29.2 2.8 29.2C4.144 29.2 5.2 30.256 5.2 31.6C5.2 32.944 4.144 34 2.8 34ZM22 34C20.656 34 19.6 32.944 19.6 31.6C19.6 30.256 20.656 29.2 22 29.2C23.344 29.2 24.4 30.256 24.4 31.6C24.4 32.944 23.344 34 22 34ZM31.5813 5.2C30.2373 5.2 29.1813 4.144 29.1813 2.8C29.1813 1.456 30.2373 0.399998 31.5813 0.399998C32.9253 0.399998 33.9813 1.456 33.9813 2.8C33.9813 4.144 32.9253 5.2 31.5813 5.2ZM50.7812 5.2C49.4373 5.2 48.3813 4.144 48.3813 2.8C48.3813 1.456 49.4373 0.399998 50.7812 0.399998C52.1252 0.399998 53.1813 1.456 53.1813 2.8C53.1813 4.144 52.1252 5.2 50.7812 5.2ZM31.5813 12.4C30.2373 12.4 29.1813 11.344 29.1813 10C29.1813 8.656 30.2373 7.6 31.5813 7.6C32.9253 7.6 33.9813 8.656 33.9813 10C33.9813 11.344 32.9253 12.4 31.5813 12.4ZM36.3813 12.4C35.0373 12.4 33.9813 11.344 33.9813 10C33.9813 8.656 35.0373 7.6 36.3813 7.6C37.7253 7.6 38.7812 8.656 38.7812 10C38.7812 11.344 37.7253 12.4 36.3813 12.4ZM45.9813 12.4C44.6373 12.4 43.5813 11.344 43.5813 10C43.5813 8.656 44.6373 7.6 45.9813 7.6C47.3253 7.6 48.3813 8.656 48.3813 10C48.3813 11.344 47.3253 12.4 45.9813 12.4ZM50.7812 12.4C49.4373 12.4 48.3813 11.344 48.3813 10C48.3813 8.656 49.4373 7.6 50.7812 7.6C52.1252 7.6 53.1813 8.656 53.1813 10C53.1813 11.344 52.1252 12.4 50.7812 12.4ZM31.5813 19.6C30.2373 19.6 29.1813 18.544 29.1813 17.2C29.1813 15.856 30.2373 14.8 31.5813 14.8C32.9253 14.8 33.9813 15.856 33.9813 17.2C33.9813 18.544 32.9253 19.6 31.5813 19.6ZM41.1813 19.6C39.8373 19.6 38.7812 18.544 38.7812 17.2C38.7812 15.856 39.8373 14.8 41.1813 14.8C42.5253 14.8 43.5813 15.856 43.5813 17.2C43.5813 18.544 42.5253 19.6 41.1813 19.6ZM50.7812 19.6C49.4373 19.6 48.3813 18.544 48.3813 17.2C48.3813 15.856 49.4373 14.8 50.7812 14.8C52.1252 14.8 53.1813 15.856 53.1813 17.2C53.1813 18.544 52.1252 19.6 50.7812 19.6ZM31.5813 26.8C30.2373 26.8 29.1813 25.744 29.1813 24.4C29.1813 23.056 30.2373 22 31.5813 22C32.9253 22 33.9813 23.056 33.9813 24.4C33.9813 25.744 32.9253 26.8 31.5813 26.8ZM50.7812 26.8C49.4373 26.8 48.3813 25.744 48.3813 24.4C48.3813 23.056 49.4373 22 50.7812 22C52.1252 22 53.1813 23.056 53.1813 24.4C53.1813 25.744 52.1252 26.8 50.7812 26.8ZM31.5813 34C30.2373 34 29.1813 32.944 29.1813 31.6C29.1813 30.256 30.2373 29.2 31.5813 29.2C32.9253 29.2 33.9813 30.256 33.9813 31.6C33.9813 32.944 32.9253 34 31.5813 34ZM50.7812 34C49.4373 34 48.3813 32.944 48.3813 31.6C48.3813 30.256 49.4373 29.2 50.7812 29.2C52.1252 29.2 53.1813 30.256 53.1813 31.6C53.1813 32.944 52.1252 34 50.7812 34ZM60.3625 5.2C59.0185 5.2 57.9625 4.144 57.9625 2.8C57.9625 1.456 59.0185 0.399998 60.3625 0.399998C61.7065 0.399998 62.7625 1.456 62.7625 2.8C62.7625 4.144 61.7065 5.2 60.3625 5.2ZM65.1625 5.2C63.8185 5.2 62.7625 4.144 62.7625 2.8C62.7625 1.456 63.8185 0.399998 65.1625 0.399998C66.5065 0.399998 67.5625 1.456 67.5625 2.8C67.5625 4.144 66.5065 5.2 65.1625 5.2ZM69.9625 5.2C68.6185 5.2 67.5625 4.144 67.5625 2.8C67.5625 1.456 68.6185 0.399998 69.9625 0.399998C71.3065 0.399998 72.3625 1.456 72.3625 2.8C72.3625 4.144 71.3065 5.2 69.9625 5.2ZM65.1625 12.4C63.8185 12.4 62.7625 11.344 62.7625 10C62.7625 8.656 63.8185 7.6 65.1625 7.6C66.5065 7.6 67.5625 8.656 67.5625 10C67.5625 11.344 66.5065 12.4 65.1625 12.4ZM65.1625 19.6C63.8185 19.6 62.7625 18.544 62.7625 17.2C62.7625 15.856 63.8185 14.8 65.1625 14.8C66.5065 14.8 67.5625 15.856 67.5625 17.2C67.5625 18.544 66.5065 19.6 65.1625 19.6ZM65.1625 26.8C63.8185 26.8 62.7625 25.744 62.7625 24.4C62.7625 23.056 63.8185 22 65.1625 22C66.5065 22 67.5625 23.056 67.5625 24.4C67.5625 25.744 66.5065 26.8 65.1625 26.8ZM60.3625 34C59.0185 34 57.9625 32.944 57.9625 31.6C57.9625 30.256 59.0185 29.2 60.3625 29.2C61.7065 29.2 62.7625 30.256 62.7625 31.6C62.7625 32.944 61.7065 34 60.3625 34ZM65.1625 34C63.8185 34 62.7625 32.944 62.7625 31.6C62.7625 30.256 63.8185 29.2 65.1625 29.2C66.5065 29.2 67.5625 30.256 67.5625 31.6C67.5625 32.944 66.5065 34 65.1625 34ZM69.9625 34C68.6185 34 67.5625 32.944 67.5625 31.6C67.5625 30.256 68.6185 29.2 69.9625 29.2C71.3065 29.2 72.3625 30.256 72.3625 31.6C72.3625 32.944 71.3065 34 69.9625 34ZM79.5813 5.2C78.2373 5.2 77.1813 4.144 77.1813 2.8C77.1813 1.456 78.2373 0.399998 79.5813 0.399998C80.9253 0.399998 81.9813 1.456 81.9813 2.8C81.9813 4.144 80.9253 5.2 79.5813 5.2ZM84.3813 5.2C83.0373 5.2 81.9813 4.144 81.9813 2.8C81.9813 1.456 83.0373 0.399998 84.3813 0.399998C85.7253 0.399998 86.7812 1.456 86.7812 2.8C86.7812 4.144 85.7253 5.2 84.3813 5.2ZM89.1813 5.2C87.8373 5.2 86.7812 4.144 86.7812 2.8C86.7812 1.456 87.8373 0.399998 89.1813 0.399998C90.5253 0.399998 91.5813 1.456 91.5813 2.8C91.5813 4.144 90.5253 5.2 89.1813 5.2ZM93.9813 5.2C92.6373 5.2 91.5813 4.144 91.5813 2.8C91.5813 1.456 92.6373 0.399998 93.9813 0.399998C95.3253 0.399998 96.3813 1.456 96.3813 2.8C96.3813 4.144 95.3253 5.2 93.9813 5.2ZM98.7812 5.2C97.4373 5.2 96.3813 4.144 96.3813 2.8C96.3813 1.456 97.4373 0.399998 98.7812 0.399998C100.125 0.399998 101.181 1.456 101.181 2.8C101.181 4.144 100.125 5.2 98.7812 5.2ZM89.1813 12.4C87.8373 12.4 86.7812 11.344 86.7812 10C86.7812 8.656 87.8373 7.6 89.1813 7.6C90.5253 7.6 91.5813 8.656 91.5813 10C91.5813 11.344 90.5253 12.4 89.1813 12.4ZM89.1813 19.6C87.8373 19.6 86.7812 18.544 86.7812 17.2C86.7812 15.856 87.8373 14.8 89.1813 14.8C90.5253 14.8 91.5813 15.856 91.5813 17.2C91.5813 18.544 90.5253 19.6 89.1813 19.6ZM89.1813 26.8C87.8373 26.8 86.7812 25.744 86.7812 24.4C86.7812 23.056 87.8373 22 89.1813 22C90.5253 22 91.5813 23.056 91.5813 24.4C91.5813 25.744 90.5253 26.8 89.1813 26.8ZM89.1813 34C87.8373 34 86.7812 32.944 86.7812 31.6C86.7812 30.256 87.8373 29.2 89.1813 29.2C90.5253 29.2 91.5813 30.256 91.5813 31.6C91.5813 32.944 90.5253 34 89.1813 34Z" fill="white"/>
</svg>
