<svg width="89" height="24" viewBox="0 0 89 24" fill="none" xmlns="http://www.w3.org/2000/svg">
<g clip-path="url(#clip0_11_2)">
<path d="M17.0446 10.2409H9.60976C9.51757 10.241 9.42919 10.2777 9.36403 10.3429C9.29886 10.4081 9.26223 10.4965 9.26219 10.5887V14.2237C9.26219 14.4155 9.41793 14.5716 9.60958 14.5716H12.5101V19.0879C12.5101 19.0879 11.8588 19.31 10.0583 19.31C7.93407 19.31 4.96653 18.5337 4.96653 12.0085C4.96653 5.48184 8.05666 4.62319 10.9576 4.62319C13.4686 4.62319 14.5505 5.06521 15.2387 5.27827C15.4551 5.34458 15.6552 5.12927 15.6552 4.93727L16.4845 1.42498C16.4845 1.33519 16.4541 1.22711 16.3517 1.15373C16.0721 0.954302 14.3668 0 10.0582 0C5.09499 0 0.00354004 2.11166 0.00354004 12.263C0.00354004 22.4146 5.8326 23.9273 10.7448 23.9273C14.8119 23.9273 17.2791 22.1893 17.2791 22.1893C17.3809 22.1332 17.3918 21.9911 17.3918 21.9258V10.5887C17.3918 10.397 17.2362 10.2409 17.0446 10.2409ZM55.3412 1.27062C55.3412 1.07724 55.1878 0.921151 54.996 0.921151H50.8096C50.7639 0.921332 50.7187 0.930515 50.6765 0.948175C50.6344 0.965836 50.5961 0.991628 50.5639 1.02408C50.5317 1.05653 50.5062 1.095 50.4889 1.13731C50.4716 1.17961 50.4628 1.22491 50.4629 1.27062L50.464 9.36086H43.9387V1.27079C43.9387 1.07741 43.7847 0.921324 43.5932 0.921324H39.4067C39.3145 0.921826 39.2263 0.958922 39.1614 1.02446C39.0966 1.08999 39.0604 1.17859 39.0609 1.27079V23.1767C39.0609 23.3701 39.2163 23.5273 39.4067 23.5273H43.5929C43.7844 23.5273 43.9382 23.3701 43.9382 23.1767V13.8067H50.4636L50.4522 23.1766C50.4522 23.37 50.6076 23.5271 50.7989 23.5271H54.9953C55.187 23.5271 55.3403 23.37 55.3406 23.1766L55.3412 1.27062ZM24.9307 4.19948C24.9307 2.69214 23.7221 1.47384 22.2312 1.47384C20.7416 1.47384 19.5321 2.69197 19.5321 4.19948C19.5321 5.70509 20.7416 6.92668 22.2312 6.92668C23.7221 6.92668 24.9307 5.70509 24.9307 4.19948ZM24.5985 18.567V8.45525C24.5988 8.36307 24.5625 8.27454 24.4975 8.20912C24.4326 8.14369 24.3444 8.10671 24.2522 8.1063H20.0791C19.8876 8.1063 19.7165 8.30383 19.7165 8.49583V22.983C19.7165 23.4088 19.9817 23.5354 20.3252 23.5354H24.0849C24.4975 23.5354 24.5985 23.3328 24.5985 22.9761V18.567ZM71.3409 8.10647H67.1866C66.996 8.10647 66.841 8.26342 66.841 8.45663V19.1979C66.841 19.1979 65.7856 19.9701 64.2876 19.9701C62.7898 19.9701 62.3923 19.2903 62.3923 17.8237V8.45681C62.3923 8.26342 62.2374 8.1063 62.0468 8.1063H57.8306C57.6403 8.1063 57.4844 8.26342 57.4844 8.45681V18.533C57.4844 22.8893 59.9125 23.9551 63.2527 23.9551C65.9928 23.9551 68.202 22.4414 68.202 22.4414C68.202 22.4414 68.3074 23.2391 68.3549 23.3337C68.4025 23.4281 68.5265 23.5233 68.6605 23.5233L71.3428 23.5115C71.533 23.5115 71.689 23.3542 71.689 23.1619L71.6876 8.45663C71.6879 8.36425 71.6516 8.2755 71.5866 8.20985C71.5216 8.1442 71.4332 8.10702 71.3409 8.10647ZM80.9124 19.9784C79.4715 19.9345 78.4941 19.2806 78.4941 19.2806V12.3433C78.4941 12.3433 79.4584 11.7522 80.6413 11.6466C82.1372 11.5126 83.5788 11.9644 83.5788 15.5332C83.5788 19.2963 82.9282 20.0391 80.9124 19.9784ZM82.5509 7.6358C80.1915 7.6358 78.5866 8.68852 78.5866 8.68852V1.27062C78.5869 1.22499 78.5783 1.17974 78.5611 1.13746C78.5439 1.09519 78.5185 1.05672 78.4864 1.02426C78.4544 0.991803 78.4162 0.965987 78.3741 0.948294C78.3321 0.930601 78.2869 0.921377 78.2413 0.921151H74.043C73.9974 0.921355 73.9522 0.930558 73.9101 0.948235C73.8679 0.965912 73.8297 0.991716 73.7976 1.02417C73.7654 1.05663 73.74 1.0951 73.7228 1.13739C73.7055 1.17967 73.6968 1.22495 73.697 1.27062V23.1766C73.697 23.37 73.8521 23.5271 74.0435 23.5271H76.9563C77.0876 23.5271 77.1869 23.4597 77.2602 23.3411C77.3326 23.2234 77.437 22.3311 77.437 22.3311C77.437 22.3311 79.1536 23.9579 82.4033 23.9579C86.2184 23.9579 88.4064 22.0227 88.4064 15.2704C88.4064 8.5181 84.9121 7.6358 82.5509 7.6358ZM36.6474 8.06849H33.5072L33.5024 3.91994C33.5024 3.76299 33.4216 3.68443 33.2399 3.68443H28.9607C28.7942 3.68443 28.705 3.75764 28.705 3.91753V8.20472C28.705 8.20472 26.5605 8.72236 26.4155 8.76414C26.3431 8.78513 26.2796 8.82904 26.2344 8.88926C26.1892 8.94949 26.1647 9.02277 26.1647 9.09807V11.7921C26.1647 11.9858 26.3195 12.1421 26.5109 12.1421H28.705V18.6231C28.705 23.4369 32.0815 23.9099 34.3601 23.9099C35.4013 23.9099 36.6467 23.5754 36.8523 23.4996C36.9767 23.4539 37.0488 23.3252 37.0488 23.1854L37.0523 20.2218C37.0523 20.0286 36.8891 19.8722 36.7052 19.8722C36.5222 19.8722 36.0543 19.9466 35.5722 19.9466C34.0298 19.9466 33.5072 19.2294 33.5072 18.3011L33.507 12.1423H36.6474C36.6932 12.1421 36.7384 12.1329 36.7806 12.1152C36.8228 12.0975 36.8611 12.0716 36.8933 12.0391C36.9254 12.0066 36.9509 11.968 36.9681 11.9256C36.9854 11.8832 36.9941 11.8379 36.9938 11.7921V8.41778C36.9938 8.2244 36.8389 8.06849 36.6474 8.06849Z" fill="#11110F"/>
</g>
<defs>
<clipPath id="clip0_11_2">
<rect width="88.41" height="24" fill="white"/>
</clipPath>
</defs>
</svg>
